# xmcd
#
# Track frame offsets:
#	150
#	17327
#	30804
#	46793
#	62393
#	76487
#	92023
#	109584
#	123390
#	138556
#	152230
#	165981
#	179494
#	194990
#
# Disc length: 2804
#
# Revision: 2
# Processed by: cddbd v1.5.1PL0 Copyright (c) Steve Scherf et al.
# Submitted via: audiograbber 1.83.01
# Normalized: r1:DSETVAR1
#
DISCID=a90af20e
DTITLE=Various Artist - Goldene Schlagerparade 1/2005
DYEAR=2005
DGENRE=Schlager
TTITLE0=Seer - Sche das di gibt
TTITLE1=Brunner and Brunner - Prosecco für alle
TTITLE2=René Meyer - SOS Herz in Not
TTITLE3=Andrea Berg - Spiel noch einmal nur für mich
TTITLE4=Gilbert - Sehnsucht
TTITLE5=Francine Jordi - Tausend Tage Regen
TTITLE6=Tattoo - Prinzessin komm ich wart' auf dich
TTITLE7=Die lustigen Holzwürmer - Lebt den der alte Holzmichl noch
TTITLE8=Hansi Hinterseer - Tiroler Berge
TTITLE9=Nachtfalken - Sehnsucht (ist alles was mir bleibt)
TTITLE10=Stephanie - Sternenmeer
TTITLE11=Frei - Bella Bionda
TTITLE12=Geschwister Hofmann - Entführ mich zu den Sternen
TTITLE13=Nicole - Kein Abschied ist für immer
EXTD=
EXTT0=
EXTT1=
EXTT2=
EXTT3=
EXTT4=
EXTT5=
EXTT6=
EXTT7=
EXTT8=
EXTT9=
EXTT10=
EXTT11=
EXTT12=
EXTT13=
PLAYORDER=
